<?xml version="1.0" encoding="UTF-8" standalone="no"?>
<!DOCTYPE svg PUBLIC "-//W3C//DTD SVG 1.1//EN"
 "http://www.w3.org/Graphics/SVG/1.1/DTD/svg11.dtd">
<!-- Generated by graphviz version 2.43.0 (0)
 -->
<!-- Title: %3 Pages: 1 -->
<svg width="545pt" height="404pt"
 viewBox="0.00 0.00 545.07 404.00" xmlns="http://www.w3.org/2000/svg" xmlns:xlink="http://www.w3.org/1999/xlink">
<g id="graph0" class="graph" transform="scale(1 1) rotate(0) translate(4 400)">
<title>%3</title>
<polygon fill="white" stroke="transparent" points="-4,4 -4,-400 541.07,-400 541.07,4 -4,4"/>
<!-- jqt -->
<g id="node1" class="node">
<title>jqt</title>
<ellipse fill="none" stroke="black" cx="86" cy="-378" rx="27" ry="18"/>
<text text-anchor="middle" x="86" y="-374.3" font-family="Times,serif" font-size="14.00">jqt</text>
</g>
<!-- rhn -->
<g id="node2" class="node">
<title>rhn</title>
<ellipse fill="none" stroke="black" cx="114" cy="-306" rx="27" ry="18"/>
<text text-anchor="middle" x="114" y="-302.3" font-family="Times,serif" font-size="14.00">rhn</text>
</g>
<!-- jqt&#45;&#45;rhn -->
<g id="edge1" class="edge">
<title>jqt&#45;&#45;rhn</title>
<path fill="none" stroke="black" d="M92.64,-360.41C97.1,-349.25 102.96,-334.6 107.41,-323.47"/>
</g>
<!-- xhk -->
<g id="node3" class="node">
<title>xhk</title>
<ellipse fill="none" stroke="black" cx="59" cy="-234" rx="27.1" ry="18"/>
<text text-anchor="middle" x="59" y="-230.3" font-family="Times,serif" font-size="14.00">xhk</text>
</g>
<!-- jqt&#45;&#45;xhk -->
<g id="edge2" class="edge">
<title>jqt&#45;&#45;xhk</title>
<path fill="none" stroke="black" d="M82.74,-359.87C77.55,-332.58 67.47,-279.52 62.27,-252.19"/>
</g>
<!-- nvd -->
<g id="node4" class="node">
<title>nvd</title>
<ellipse fill="none" stroke="black" cx="428" cy="-306" rx="27.9" ry="18"/>
<text text-anchor="middle" x="428" y="-302.3" font-family="Times,serif" font-size="14.00">nvd</text>
</g>
<!-- jqt&#45;&#45;nvd -->
<g id="edge3" class="edge">
<title>jqt&#45;&#45;nvd</title>
<path fill="none" stroke="black" d="M111.43,-371.8C174.43,-358.9 337.31,-325.56 401.47,-312.43"/>
</g>
<!-- ntq -->
<g id="node14" class="node">
<title>ntq</title>
<ellipse fill="none" stroke="black" cx="75" cy="-18" rx="27" ry="18"/>
<text text-anchor="middle" x="75" y="-14.3" font-family="Times,serif" font-size="14.00">ntq</text>
</g>
<!-- jqt&#45;&#45;ntq -->
<g id="edge4" class="edge">
<title>jqt&#45;&#45;ntq</title>
<path fill="none" stroke="black" d="M70.23,-362.98C45.4,-339.28 0,-288.61 0,-235 0,-235 0,-235 0,-161 0,-109.42 39.17,-58.23 60.89,-33.81"/>
</g>
<!-- rhn&#45;&#45;xhk -->
<g id="edge5" class="edge">
<title>rhn&#45;&#45;xhk</title>
<path fill="none" stroke="black" d="M102.07,-289.81C92.97,-278.23 80.48,-262.34 71.29,-250.64"/>
</g>
<!-- hfx -->
<g id="node9" class="node">
<title>hfx</title>
<ellipse fill="none" stroke="black" cx="169" cy="-162" rx="27" ry="18"/>
<text text-anchor="middle" x="169" y="-158.3" font-family="Times,serif" font-size="14.00">hfx</text>
</g>
<!-- rhn&#45;&#45;hfx -->
<g id="edge7" class="edge">
<title>rhn&#45;&#45;hfx</title>
<path fill="none" stroke="black" d="M120.42,-288.43C130.96,-261.22 151.83,-207.33 162.45,-179.9"/>
</g>
<!-- bvb -->
<g id="node13" class="node">
<title>bvb</title>
<ellipse fill="none" stroke="black" cx="113" cy="-90" rx="27.9" ry="18"/>
<text text-anchor="middle" x="113" y="-86.3" font-family="Times,serif" font-size="14.00">bvb</text>
</g>
<!-- rhn&#45;&#45;bvb -->
<g id="edge6" class="edge">
<title>rhn&#45;&#45;bvb</title>
<path fill="none" stroke="black" d="M113.92,-287.85C113.73,-247.78 113.27,-148.38 113.08,-108.23"/>
</g>
<!-- xhk&#45;&#45;hfx -->
<g id="edge8" class="edge">
<title>xhk&#45;&#45;hfx</title>
<path fill="none" stroke="black" d="M78.16,-220.81C98.35,-207.96 129.95,-187.85 150.06,-175.05"/>
</g>
<!-- xhk&#45;&#45;bvb -->
<g id="edge9" class="edge">
<title>xhk&#45;&#45;bvb</title>
<path fill="none" stroke="black" d="M65.3,-216.43C75.65,-189.22 96.14,-135.33 106.57,-107.9"/>
</g>
<!-- xhk&#45;&#45;ntq -->
<g id="edge10" class="edge">
<title>xhk&#45;&#45;ntq</title>
<path fill="none" stroke="black" d="M60.28,-215.85C63.28,-175.78 70.71,-76.38 73.71,-36.23"/>
</g>
<!-- pzl -->
<g id="node7" class="node">
<title>pzl</title>
<ellipse fill="none" stroke="black" cx="301" cy="-234" rx="27" ry="18"/>
<text text-anchor="middle" x="301" y="-230.3" font-family="Times,serif" font-size="14.00">pzl</text>
</g>
<!-- nvd&#45;&#45;pzl -->
<g id="edge12" class="edge">
<title>nvd&#45;&#45;pzl</title>
<path fill="none" stroke="black" d="M407.31,-293.6C383.56,-280.5 344.83,-259.16 321.26,-246.17"/>
</g>
<!-- cmg -->
<g id="node10" class="node">
<title>cmg</title>
<ellipse fill="none" stroke="black" cx="487" cy="-234" rx="30.59" ry="18"/>
<text text-anchor="middle" x="487" y="-230.3" font-family="Times,serif" font-size="14.00">cmg</text>
</g>
<!-- nvd&#45;&#45;cmg -->
<g id="edge11" class="edge">
<title>nvd&#45;&#45;cmg</title>
<path fill="none" stroke="black" d="M440.8,-289.81C450.56,-278.23 463.96,-262.34 473.81,-250.64"/>
</g>
<!-- qnr -->
<g id="node11" class="node">
<title>qnr</title>
<ellipse fill="none" stroke="black" cx="394" cy="-162" rx="27" ry="18"/>
<text text-anchor="middle" x="394" y="-158.3" font-family="Times,serif" font-size="14.00">qnr</text>
</g>
<!-- nvd&#45;&#45;qnr -->
<g id="edge13" class="edge">
<title>nvd&#45;&#45;qnr</title>
<path fill="none" stroke="black" d="M424.69,-287.86C421.13,-269.88 415.16,-240.84 409,-216 406.01,-203.93 402.19,-190.46 399.15,-180.11"/>
</g>
<!-- lhk -->
<g id="node12" class="node">
<title>lhk</title>
<ellipse fill="none" stroke="black" cx="482" cy="-90" rx="27" ry="18"/>
<text text-anchor="middle" x="482" y="-86.3" font-family="Times,serif" font-size="14.00">lhk</text>
</g>
<!-- nvd&#45;&#45;lhk -->
<g id="edge14" class="edge">
<title>nvd&#45;&#45;lhk</title>
<path fill="none" stroke="black" d="M453.91,-299.13C477.6,-292.24 511.27,-278.26 527,-252 555.93,-203.7 515.17,-136.14 493.73,-106.26"/>
</g>
<!-- rsh -->
<g id="node5" class="node">
<title>rsh</title>
<ellipse fill="none" stroke="black" cx="273" cy="-306" rx="27" ry="18"/>
<text text-anchor="middle" x="273" y="-302.3" font-family="Times,serif" font-size="14.00">rsh</text>
</g>
<!-- frs -->
<g id="node6" class="node">
<title>frs</title>
<ellipse fill="none" stroke="black" cx="373" cy="-234" rx="27" ry="18"/>
<text text-anchor="middle" x="373" y="-230.3" font-family="Times,serif" font-size="14.00">frs</text>
</g>
<!-- rsh&#45;&#45;frs -->
<g id="edge15" class="edge">
<title>rsh&#45;&#45;frs</title>
<path fill="none" stroke="black" d="M290.88,-292.49C308.97,-279.82 336.78,-260.35 354.94,-247.64"/>
</g>
<!-- rsh&#45;&#45;pzl -->
<g id="edge16" class="edge">
<title>rsh&#45;&#45;pzl</title>
<path fill="none" stroke="black" d="M279.64,-288.41C284.1,-277.25 289.96,-262.6 294.41,-251.47"/>
</g>
<!-- lsr -->
<g id="node8" class="node">
<title>lsr</title>
<ellipse fill="none" stroke="black" cx="284" cy="-162" rx="27" ry="18"/>
<text text-anchor="middle" x="284" y="-158.3" font-family="Times,serif" font-size="14.00">lsr</text>
</g>
<!-- rsh&#45;&#45;lsr -->
<g id="edge17" class="edge">
<title>rsh&#45;&#45;lsr</title>
<path fill="none" stroke="black" d="M268.89,-288.16C265.1,-270.18 260.67,-240.91 265,-216 267.21,-203.29 272.19,-189.59 276.5,-179.31"/>
</g>
<!-- rzs -->
<g id="node15" class="node">
<title>rzs</title>
<ellipse fill="none" stroke="black" cx="326" cy="-90" rx="27" ry="18"/>
<text text-anchor="middle" x="326" y="-86.3" font-family="Times,serif" font-size="14.00">rzs</text>
</g>
<!-- rsh&#45;&#45;rzs -->
<g id="edge18" class="edge">
<title>rsh&#45;&#45;rzs</title>
<path fill="none" stroke="black" d="M264.33,-288.84C249.35,-258.56 222.58,-192 248,-144 259.49,-122.3 284.3,-107.83 302.87,-99.57"/>
</g>
<!-- frs&#45;&#45;lsr -->
<g id="edge21" class="edge">
<title>frs&#45;&#45;lsr</title>
<path fill="none" stroke="black" d="M356.26,-219.83C340.45,-207.4 316.85,-188.84 300.97,-176.35"/>
</g>
<!-- frs&#45;&#45;qnr -->
<g id="edge19" class="edge">
<title>frs&#45;&#45;qnr</title>
<path fill="none" stroke="black" d="M378.08,-216.05C381.39,-205.05 385.67,-190.76 388.96,-179.79"/>
</g>
<!-- frs&#45;&#45;lhk -->
<g id="edge20" class="edge">
<title>frs&#45;&#45;lhk</title>
<path fill="none" stroke="black" d="M363.93,-216.81C354.62,-197.81 343.41,-166.1 358,-144 379.6,-111.27 426.02,-98.68 455.53,-93.89"/>
</g>
<!-- pzl&#45;&#45;lsr -->
<g id="edge22" class="edge">
<title>pzl&#45;&#45;lsr</title>
<path fill="none" stroke="black" d="M296.88,-216.05C294.25,-205.21 290.84,-191.18 288.2,-180.28"/>
</g>
<!-- pzl&#45;&#45;hfx -->
<g id="edge23" class="edge">
<title>pzl&#45;&#45;hfx</title>
<path fill="none" stroke="black" d="M280.38,-222.06C255.58,-208.91 214.21,-186.98 189.48,-173.86"/>
</g>
<!-- lsr&#45;&#45;lhk -->
<g id="edge24" class="edge">
<title>lsr&#45;&#45;lhk</title>
<path fill="none" stroke="black" d="M306.02,-151.55C312.13,-149.01 318.8,-146.33 325,-144 371.73,-126.45 427.23,-108.34 458.15,-98.5"/>
</g>
<!-- lsr&#45;&#45;rzs -->
<g id="edge25" class="edge">
<title>lsr&#45;&#45;rzs</title>
<path fill="none" stroke="black" d="M293.53,-145.12C300.31,-133.82 309.38,-118.7 316.22,-107.31"/>
</g>
<!-- hfx&#45;&#45;bvb -->
<g id="edge26" class="edge">
<title>hfx&#45;&#45;bvb</title>
<path fill="none" stroke="black" d="M156.85,-145.81C147.58,-134.23 134.87,-118.34 125.52,-106.64"/>
</g>
<!-- hfx&#45;&#45;ntq -->
<g id="edge27" class="edge">
<title>hfx&#45;&#45;ntq</title>
<path fill="none" stroke="black" d="M168.96,-143.85C168.14,-124.82 164.44,-93.9 150,-72 137.01,-52.3 113.97,-37.66 96.85,-28.82"/>
</g>
<!-- cmg&#45;&#45;qnr -->
<g id="edge28" class="edge">
<title>cmg&#45;&#45;qnr</title>
<path fill="none" stroke="black" d="M468.63,-219.17C452,-206.66 427.7,-188.37 411.39,-176.09"/>
</g>
<!-- cmg&#45;&#45;lhk -->
<g id="edge29" class="edge">
<title>cmg&#45;&#45;lhk</title>
<path fill="none" stroke="black" d="M492.93,-216.24C498.5,-198.33 505.37,-169.12 501,-144 498.79,-131.29 493.81,-117.59 489.5,-107.31"/>
</g>
<!-- cmg&#45;&#45;bvb -->
<g id="edge30" class="edge">
<title>cmg&#45;&#45;bvb</title>
<path fill="none" stroke="black" d="M478.56,-216.53C466.36,-193.4 443.78,-153.1 430,-144 405.84,-128.05 212.58,-103.14 140.22,-94.27"/>
</g>
<!-- cmg&#45;&#45;rzs -->
<g id="edge31" class="edge">
<title>cmg&#45;&#45;rzs</title>
<path fill="none" stroke="black" d="M486.82,-215.77C485.7,-196.07 480.98,-163.99 463,-144 434.09,-111.86 383.41,-99.05 352.45,-94.06"/>
</g>
<!-- qnr&#45;&#45;rzs -->
<g id="edge32" class="edge">
<title>qnr&#45;&#45;rzs</title>
<path fill="none" stroke="black" d="M379.91,-146.5C368.24,-134.48 351.74,-117.49 340.07,-105.49"/>
</g>
<!-- bvb&#45;&#45;ntq -->
<g id="edge33" class="edge">
<title>bvb&#45;&#45;ntq</title>
<path fill="none" stroke="black" d="M104.19,-72.76C98.05,-61.46 89.89,-46.44 83.77,-35.15"/>
</g>
</g>
</svg>
