<?xml version="1.0" encoding="UTF-8" standalone="no"?>
<!DOCTYPE svg PUBLIC "-//W3C//DTD SVG 1.1//EN"
 "http://www.w3.org/Graphics/SVG/1.1/DTD/svg11.dtd">
<!-- Generated by graphviz version 2.43.0 (0)
 -->
<!-- Title: Circuit Pages: 1 -->
<svg width="1749pt" height="1196pt"
 viewBox="0.00 0.00 1749.00 1196.00" xmlns="http://www.w3.org/2000/svg" xmlns:xlink="http://www.w3.org/1999/xlink">
<g id="graph0" class="graph" transform="scale(1 1) rotate(0) translate(4 1192)">
<title>Circuit</title>
<polygon fill="white" stroke="transparent" points="-4,4 -4,-1192 1745,-1192 1745,4 -4,4"/>
<!-- hf -->
<g id="node1" class="node">
<title>hf</title>
<ellipse fill="none" stroke="black" cx="300" cy="-1170" rx="27" ry="18"/>
<text text-anchor="middle" x="300" y="-1166.3" font-family="Times,serif" font-size="14.00">hf</text>
</g>
<!-- qk -->
<g id="node2" class="node">
<title>qk</title>
<ellipse fill="none" stroke="black" cx="226" cy="-1098" rx="27" ry="18"/>
<text text-anchor="middle" x="226" y="-1094.3" font-family="Times,serif" font-size="14.00">qk</text>
</g>
<!-- hf&#45;&gt;qk -->
<g id="edge1" class="edge">
<title>hf&#45;&gt;qk</title>
<path fill="none" stroke="black" d="M285.02,-1154.83C274.49,-1144.87 260.22,-1131.37 248.34,-1120.14"/>
<polygon fill="black" stroke="black" points="250.62,-1117.47 240.95,-1113.14 245.81,-1122.56 250.62,-1117.47"/>
</g>
<!-- zb -->
<g id="node10" class="node">
<title>zb</title>
<ellipse fill="none" stroke="black" cx="226" cy="-1026" rx="27" ry="18"/>
<text text-anchor="middle" x="226" y="-1022.3" font-family="Times,serif" font-size="14.00">zb</text>
</g>
<!-- qk&#45;&gt;zb -->
<g id="edge3" class="edge">
<title>qk&#45;&gt;zb</title>
<path fill="none" stroke="black" d="M226,-1079.7C226,-1071.98 226,-1062.71 226,-1054.11"/>
<polygon fill="black" stroke="black" points="229.5,-1054.1 226,-1044.1 222.5,-1054.1 229.5,-1054.1"/>
</g>
<!-- vd -->
<g id="node14" class="node">
<title>vd</title>
<ellipse fill="none" stroke="black" cx="221" cy="-594" rx="27" ry="18"/>
<text text-anchor="middle" x="221" y="-590.3" font-family="Times,serif" font-size="14.00">vd</text>
</g>
<!-- qk&#45;&gt;vd -->
<g id="edge2" class="edge">
<title>qk&#45;&gt;vd</title>
<path fill="none" stroke="black" d="M199.63,-1093.13C140.02,-1082.73 0,-1048.37 0,-955 0,-955 0,-955 0,-737 0,-650.17 122.25,-613.95 184.9,-601.09"/>
<polygon fill="black" stroke="black" points="185.64,-604.51 194.78,-599.15 184.29,-597.64 185.64,-604.51"/>
</g>
<!-- xp -->
<g id="node3" class="node">
<title>xp</title>
<ellipse fill="none" stroke="black" cx="630" cy="-378" rx="27" ry="18"/>
<text text-anchor="middle" x="630" y="-374.3" font-family="Times,serif" font-size="14.00">xp</text>
</g>
<!-- pn -->
<g id="node4" class="node">
<title>pn</title>
<ellipse fill="none" stroke="black" cx="637" cy="-666" rx="27" ry="18"/>
<text text-anchor="middle" x="637" y="-662.3" font-family="Times,serif" font-size="14.00">pn</text>
</g>
<!-- xp&#45;&gt;pn -->
<g id="edge4" class="edge">
<title>xp&#45;&gt;pn</title>
<path fill="none" stroke="black" d="M620.16,-395.26C603.9,-424.09 574.26,-486.21 585,-540 592.23,-576.22 610.18,-615.07 622.96,-639.68"/>
<polygon fill="black" stroke="black" points="619.96,-641.49 627.74,-648.68 626.14,-638.21 619.96,-641.49"/>
</g>
<!-- mq -->
<g id="node5" class="node">
<title>mq</title>
<ellipse fill="none" stroke="black" cx="630" cy="-306" rx="27" ry="18"/>
<text text-anchor="middle" x="630" y="-302.3" font-family="Times,serif" font-size="14.00">mq</text>
</g>
<!-- xp&#45;&gt;mq -->
<g id="edge5" class="edge">
<title>xp&#45;&gt;mq</title>
<path fill="none" stroke="black" d="M630,-359.7C630,-351.98 630,-342.71 630,-334.11"/>
<polygon fill="black" stroke="black" points="633.5,-334.1 630,-324.1 626.5,-334.1 633.5,-334.1"/>
</g>
<!-- pn&#45;&gt;mq -->
<g id="edge11" class="edge">
<title>pn&#45;&gt;mq</title>
<path fill="none" stroke="black" d="M663.21,-661.65C692.94,-656.41 740.72,-643.4 767,-612 792.96,-580.99 786,-563.45 786,-523 786,-523 786,-523 786,-449 786,-382.81 708.24,-339.3 662.52,-319.44"/>
<polygon fill="black" stroke="black" points="663.59,-316.09 653.02,-315.45 660.88,-322.55 663.59,-316.09"/>
</g>
<!-- lf -->
<g id="node12" class="node">
<title>lf</title>
<ellipse fill="none" stroke="black" cx="841" cy="-594" rx="27" ry="18"/>
<text text-anchor="middle" x="841" y="-590.3" font-family="Times,serif" font-size="14.00">lf</text>
</g>
<!-- pn&#45;&gt;lf -->
<g id="edge8" class="edge">
<title>pn&#45;&gt;lf</title>
<path fill="none" stroke="black" d="M661.23,-657.77C693.25,-648.08 751.29,-629.99 800,-612 803.11,-610.85 806.33,-609.61 809.54,-608.34"/>
<polygon fill="black" stroke="black" points="811.05,-611.5 819,-604.5 808.41,-605.02 811.05,-611.5"/>
</g>
<!-- lz -->
<g id="node20" class="node">
<title>lz</title>
<ellipse fill="none" stroke="black" cx="665" cy="-882" rx="27" ry="18"/>
<text text-anchor="middle" x="665" y="-878.3" font-family="Times,serif" font-size="14.00">lz</text>
</g>
<!-- pn&#45;&gt;lz -->
<g id="edge6" class="edge">
<title>pn&#45;&gt;lz</title>
<path fill="none" stroke="black" d="M643.01,-683.64C651.39,-720.37 663.24,-808.67 666.11,-853.66"/>
<polygon fill="black" stroke="black" points="662.63,-854.04 666.63,-863.85 669.62,-853.68 662.63,-854.04"/>
</g>
<!-- hq -->
<g id="node21" class="node">
<title>hq</title>
<ellipse fill="none" stroke="black" cx="731" cy="-522" rx="27" ry="18"/>
<text text-anchor="middle" x="731" y="-518.3" font-family="Times,serif" font-size="14.00">hq</text>
</g>
<!-- pn&#45;&gt;hq -->
<g id="edge7" class="edge">
<title>pn&#45;&gt;hq</title>
<path fill="none" stroke="black" d="M647.18,-649.19C658.69,-631.34 678.04,-601.49 695,-576 701.29,-566.55 708.28,-556.22 714.41,-547.21"/>
<polygon fill="black" stroke="black" points="717.46,-548.95 720.21,-538.72 711.68,-545 717.46,-548.95"/>
</g>
<!-- mh -->
<g id="node22" class="node">
<title>mh</title>
<ellipse fill="none" stroke="black" cx="676" cy="-450" rx="27" ry="18"/>
<text text-anchor="middle" x="676" y="-446.3" font-family="Times,serif" font-size="14.00">mh</text>
</g>
<!-- pn&#45;&gt;mh -->
<g id="edge9" class="edge">
<title>pn&#45;&gt;mh</title>
<path fill="none" stroke="black" d="M640.13,-647.85C646.89,-610.74 662.92,-522.75 671.07,-478.05"/>
<polygon fill="black" stroke="black" points="674.56,-478.4 672.91,-467.94 667.68,-477.15 674.56,-478.4"/>
</g>
<!-- bh -->
<g id="node23" class="node">
<title>bh</title>
<ellipse fill="none" stroke="black" cx="731" cy="-594" rx="27" ry="18"/>
<text text-anchor="middle" x="731" y="-590.3" font-family="Times,serif" font-size="14.00">bh</text>
</g>
<!-- pn&#45;&gt;bh -->
<g id="edge10" class="edge">
<title>pn&#45;&gt;bh</title>
<path fill="none" stroke="black" d="M654.68,-651.83C668.95,-641.21 689.22,-626.11 705.29,-614.15"/>
<polygon fill="black" stroke="black" points="707.79,-616.65 713.72,-607.87 703.61,-611.04 707.79,-616.65"/>
</g>
<!-- jd -->
<g id="node56" class="node">
<title>jd</title>
<ellipse fill="none" stroke="black" cx="545" cy="-234" rx="27" ry="18"/>
<text text-anchor="middle" x="545" y="-230.3" font-family="Times,serif" font-size="14.00">jd</text>
</g>
<!-- mq&#45;&gt;jd -->
<g id="edge12" class="edge">
<title>mq&#45;&gt;jd</title>
<path fill="none" stroke="black" d="M613.61,-291.5C601.03,-281.14 583.46,-266.67 569.25,-254.97"/>
<polygon fill="black" stroke="black" points="571.28,-252.11 561.34,-248.46 566.83,-257.51 571.28,-252.11"/>
</g>
<!-- rz -->
<g id="node6" class="node">
<title>rz</title>
<ellipse fill="none" stroke="black" cx="925" cy="-666" rx="27" ry="18"/>
<text text-anchor="middle" x="925" y="-662.3" font-family="Times,serif" font-size="14.00">rz</text>
</g>
<!-- lb -->
<g id="node7" class="node">
<title>lb</title>
<ellipse fill="none" stroke="black" cx="860" cy="-450" rx="27" ry="18"/>
<text text-anchor="middle" x="860" y="-446.3" font-family="Times,serif" font-size="14.00">lb</text>
</g>
<!-- rz&#45;&gt;lb -->
<g id="edge13" class="edge">
<title>rz&#45;&gt;lb</title>
<path fill="none" stroke="black" d="M919.9,-648.21C908.65,-611.17 881.64,-522.23 868.07,-477.56"/>
<polygon fill="black" stroke="black" points="871.33,-476.27 865.08,-467.71 864.63,-478.3 871.33,-476.27"/>
</g>
<!-- rx -->
<g id="node33" class="node">
<title>rx</title>
<ellipse fill="none" stroke="black" cx="860" cy="-378" rx="27" ry="18"/>
<text text-anchor="middle" x="860" y="-374.3" font-family="Times,serif" font-size="14.00">rx</text>
</g>
<!-- lb&#45;&gt;rx -->
<g id="edge14" class="edge">
<title>lb&#45;&gt;rx</title>
<path fill="none" stroke="black" d="M860,-431.7C860,-423.98 860,-414.71 860,-406.11"/>
<polygon fill="black" stroke="black" points="863.5,-406.1 860,-396.1 856.5,-406.1 863.5,-406.1"/>
</g>
<!-- nm -->
<g id="node8" class="node">
<title>nm</title>
<ellipse fill="none" stroke="black" cx="1272" cy="-522" rx="27" ry="18"/>
<text text-anchor="middle" x="1272" y="-518.3" font-family="Times,serif" font-size="14.00">nm</text>
</g>
<!-- hn -->
<g id="node9" class="node">
<title>hn</title>
<ellipse fill="none" stroke="black" cx="1196" cy="-450" rx="27" ry="18"/>
<text text-anchor="middle" x="1196" y="-446.3" font-family="Times,serif" font-size="14.00">hn</text>
</g>
<!-- nm&#45;&gt;hn -->
<g id="edge15" class="edge">
<title>nm&#45;&gt;hn</title>
<path fill="none" stroke="black" d="M1256.62,-506.83C1245.8,-496.87 1231.14,-483.37 1218.95,-472.14"/>
<polygon fill="black" stroke="black" points="1221.08,-469.34 1211.36,-465.14 1216.34,-474.49 1221.08,-469.34"/>
</g>
<!-- xn -->
<g id="node16" class="node">
<title>xn</title>
<ellipse fill="none" stroke="black" cx="1158" cy="-378" rx="27" ry="18"/>
<text text-anchor="middle" x="1158" y="-374.3" font-family="Times,serif" font-size="14.00">xn</text>
</g>
<!-- hn&#45;&gt;xn -->
<g id="edge16" class="edge">
<title>hn&#45;&gt;xn</title>
<path fill="none" stroke="black" d="M1187.19,-432.76C1182.58,-424.28 1176.84,-413.71 1171.68,-404.2"/>
<polygon fill="black" stroke="black" points="1174.61,-402.27 1166.77,-395.15 1168.46,-405.61 1174.61,-402.27"/>
</g>
<!-- fz -->
<g id="node17" class="node">
<title>fz</title>
<ellipse fill="none" stroke="black" cx="1103" cy="-594" rx="27" ry="18"/>
<text text-anchor="middle" x="1103" y="-590.3" font-family="Times,serif" font-size="14.00">fz</text>
</g>
<!-- hn&#45;&gt;fz -->
<g id="edge17" class="edge">
<title>hn&#45;&gt;fz</title>
<path fill="none" stroke="black" d="M1190.31,-467.65C1183.51,-486.23 1171.03,-516.75 1155,-540 1146.92,-551.72 1136.12,-563.2 1126.47,-572.45"/>
<polygon fill="black" stroke="black" points="1123.98,-569.99 1119.04,-579.37 1128.75,-575.12 1123.98,-569.99"/>
</g>
<!-- gz -->
<g id="node11" class="node">
<title>gz</title>
<ellipse fill="none" stroke="black" cx="207" cy="-954" rx="27" ry="18"/>
<text text-anchor="middle" x="207" y="-950.3" font-family="Times,serif" font-size="14.00">gz</text>
</g>
<!-- zb&#45;&gt;gz -->
<g id="edge18" class="edge">
<title>zb&#45;&gt;gz</title>
<path fill="none" stroke="black" d="M221.4,-1008.05C219.25,-1000.14 216.65,-990.54 214.24,-981.69"/>
<polygon fill="black" stroke="black" points="217.55,-980.52 211.56,-971.79 210.8,-982.36 217.55,-980.52"/>
</g>
<!-- vf -->
<g id="node19" class="node">
<title>vf</title>
<ellipse fill="none" stroke="black" cx="112" cy="-882" rx="27" ry="18"/>
<text text-anchor="middle" x="112" y="-878.3" font-family="Times,serif" font-size="14.00">vf</text>
</g>
<!-- gz&#45;&gt;vf -->
<g id="edge19" class="edge">
<title>gz&#45;&gt;vf</title>
<path fill="none" stroke="black" d="M189.58,-940.16C175.07,-929.47 154.21,-914.1 137.77,-901.99"/>
<polygon fill="black" stroke="black" points="139.76,-899.11 129.64,-895.99 135.61,-904.74 139.76,-899.11"/>
</g>
<!-- lf&#45;&gt;lb -->
<g id="edge20" class="edge">
<title>lf&#45;&gt;lb</title>
<path fill="none" stroke="black" d="M843.29,-575.87C846.53,-551.67 852.48,-507.21 856.33,-478.39"/>
<polygon fill="black" stroke="black" points="859.84,-478.57 857.7,-468.19 852.9,-477.64 859.84,-478.57"/>
</g>
<!-- nn -->
<g id="node13" class="node">
<title>nn</title>
<ellipse fill="none" stroke="black" cx="321" cy="-522" rx="27" ry="18"/>
<text text-anchor="middle" x="321" y="-518.3" font-family="Times,serif" font-size="14.00">nn</text>
</g>
<!-- nn&#45;&gt;vd -->
<g id="edge21" class="edge">
<title>nn&#45;&gt;vd</title>
<path fill="none" stroke="black" d="M306.2,-537.25C291.42,-548.65 268.67,-564.63 250.3,-576.57"/>
<polygon fill="black" stroke="black" points="248.23,-573.73 241.69,-582.06 252,-579.63 248.23,-573.73"/>
</g>
<!-- zc -->
<g id="node15" class="node">
<title>zc</title>
<ellipse fill="none" stroke="black" cx="213" cy="-450" rx="27" ry="18"/>
<text text-anchor="middle" x="213" y="-446.3" font-family="Times,serif" font-size="14.00">zc</text>
</g>
<!-- nn&#45;&gt;zc -->
<g id="edge22" class="edge">
<title>nn&#45;&gt;zc</title>
<path fill="none" stroke="black" d="M302.19,-508.81C285,-497.67 259.38,-481.06 240.01,-468.5"/>
<polygon fill="black" stroke="black" points="241.89,-465.56 231.6,-463.05 238.08,-471.43 241.89,-465.56"/>
</g>
<!-- vd&#45;&gt;hf -->
<g id="edge25" class="edge">
<title>vd&#45;&gt;hf</title>
<path fill="none" stroke="black" d="M235.49,-609.28C258.3,-633.34 300,-684.53 300,-737 300,-1027 300,-1027 300,-1027 300,-1067 300,-1113.35 300,-1141.92"/>
<polygon fill="black" stroke="black" points="296.5,-1141.95 300,-1151.95 303.5,-1141.95 296.5,-1141.95"/>
</g>
<!-- vd&#45;&gt;zb -->
<g id="edge27" class="edge">
<title>vd&#45;&gt;zb</title>
<path fill="none" stroke="black" d="M229.1,-611.6C241.05,-637.66 262,-690.04 262,-737 262,-883 262,-883 262,-883 262,-924.45 247.41,-970.68 236.8,-998.8"/>
<polygon fill="black" stroke="black" points="233.47,-997.71 233.11,-1008.3 240,-1000.25 233.47,-997.71"/>
</g>
<!-- vd&#45;&gt;gz -->
<g id="edge29" class="edge">
<title>vd&#45;&gt;gz</title>
<path fill="none" stroke="black" d="M221.59,-612.05C222.47,-638.7 224,-691.88 224,-737 224,-811 224,-811 224,-811 224,-851.29 217.17,-897.56 212.17,-926.04"/>
<polygon fill="black" stroke="black" points="208.7,-925.57 210.36,-936.03 215.58,-926.81 208.7,-925.57"/>
</g>
<!-- vd&#45;&gt;nn -->
<g id="edge24" class="edge">
<title>vd&#45;&gt;nn</title>
<path fill="none" stroke="black" d="M235.69,-578.83C250.47,-567.44 273.28,-551.4 291.69,-539.44"/>
<polygon fill="black" stroke="black" points="293.77,-542.26 300.32,-533.93 290.01,-536.36 293.77,-542.26"/>
</g>
<!-- vd&#45;&gt;zc -->
<g id="edge23" class="edge">
<title>vd&#45;&gt;zc</title>
<path fill="none" stroke="black" d="M220.04,-575.87C218.67,-551.67 216.17,-507.21 214.54,-478.39"/>
<polygon fill="black" stroke="black" points="218.03,-477.98 213.97,-468.19 211.04,-478.37 218.03,-477.98"/>
</g>
<!-- br -->
<g id="node29" class="node">
<title>br</title>
<ellipse fill="none" stroke="black" cx="621" cy="-522" rx="27" ry="18"/>
<text text-anchor="middle" x="621" y="-518.3" font-family="Times,serif" font-size="14.00">br</text>
</g>
<!-- vd&#45;&gt;br -->
<g id="edge26" class="edge">
<title>vd&#45;&gt;br</title>
<path fill="none" stroke="black" d="M246.94,-588.46C316.19,-576.34 505.58,-543.2 585.1,-529.28"/>
<polygon fill="black" stroke="black" points="585.87,-532.7 595.12,-527.53 584.67,-525.8 585.87,-532.7"/>
</g>
<!-- tp -->
<g id="node48" class="node">
<title>tp</title>
<ellipse fill="none" stroke="black" cx="268" cy="-306" rx="27" ry="18"/>
<text text-anchor="middle" x="268" y="-302.3" font-family="Times,serif" font-size="14.00">tp</text>
</g>
<!-- vd&#45;&gt;tp -->
<g id="edge28" class="edge">
<title>vd&#45;&gt;tp</title>
<path fill="none" stroke="black" d="M225.36,-576.13C231.41,-552.21 242.35,-507.02 249,-468 256.96,-421.34 262.66,-366.51 265.64,-334.37"/>
<polygon fill="black" stroke="black" points="269.16,-334.28 266.57,-324 262.19,-333.65 269.16,-334.28"/>
</g>
<!-- ms -->
<g id="node51" class="node">
<title>ms</title>
<ellipse fill="none" stroke="black" cx="213" cy="-378" rx="27" ry="18"/>
<text text-anchor="middle" x="213" y="-374.3" font-family="Times,serif" font-size="14.00">ms</text>
</g>
<!-- zc&#45;&gt;ms -->
<g id="edge30" class="edge">
<title>zc&#45;&gt;ms</title>
<path fill="none" stroke="black" d="M213,-431.7C213,-423.98 213,-414.71 213,-406.11"/>
<polygon fill="black" stroke="black" points="216.5,-406.1 213,-396.1 209.5,-406.1 216.5,-406.1"/>
</g>
<!-- xn&#45;&gt;fz -->
<g id="edge31" class="edge">
<title>xn&#45;&gt;fz</title>
<path fill="none" stroke="black" d="M1153.74,-395.93C1146.34,-425.29 1130.62,-487.51 1117,-540 1114.82,-548.42 1112.41,-557.58 1110.21,-565.89"/>
<polygon fill="black" stroke="black" points="1106.76,-565.26 1107.58,-575.82 1113.52,-567.05 1106.76,-565.26"/>
</g>
<!-- kb -->
<g id="node18" class="node">
<title>kb</title>
<ellipse fill="none" stroke="black" cx="1120" cy="-306" rx="27" ry="18"/>
<text text-anchor="middle" x="1120" y="-302.3" font-family="Times,serif" font-size="14.00">kb</text>
</g>
<!-- xn&#45;&gt;kb -->
<g id="edge32" class="edge">
<title>xn&#45;&gt;kb</title>
<path fill="none" stroke="black" d="M1149.19,-360.76C1144.58,-352.28 1138.84,-341.71 1133.68,-332.2"/>
<polygon fill="black" stroke="black" points="1136.61,-330.27 1128.77,-323.15 1130.46,-333.61 1136.61,-330.27"/>
</g>
<!-- fz&#45;&gt;nm -->
<g id="edge34" class="edge">
<title>fz&#45;&gt;nm</title>
<path fill="none" stroke="black" d="M1125.66,-583.62C1151.24,-573.03 1194.11,-555.28 1231,-540 1233.9,-538.8 1236.91,-537.55 1239.92,-536.3"/>
<polygon fill="black" stroke="black" points="1241.55,-539.42 1249.44,-532.35 1238.87,-532.95 1241.55,-539.42"/>
</g>
<!-- tx -->
<g id="node44" class="node">
<title>tx</title>
<ellipse fill="none" stroke="black" cx="1018" cy="-882" rx="27" ry="18"/>
<text text-anchor="middle" x="1018" y="-878.3" font-family="Times,serif" font-size="14.00">tx</text>
</g>
<!-- fz&#45;&gt;tx -->
<g id="edge35" class="edge">
<title>fz&#45;&gt;tx</title>
<path fill="none" stroke="black" d="M1101.34,-612.09C1091.21,-660.37 1050.52,-797.97 1029.68,-855.37"/>
<polygon fill="black" stroke="black" points="1026.38,-854.21 1026.15,-864.8 1032.93,-856.66 1026.38,-854.21"/>
</g>
<!-- fk -->
<g id="node52" class="node">
<title>fk</title>
<ellipse fill="none" stroke="black" cx="934" cy="-522" rx="27" ry="18"/>
<text text-anchor="middle" x="934" y="-518.3" font-family="Times,serif" font-size="14.00">fk</text>
</g>
<!-- fz&#45;&gt;fk -->
<g id="edge33" class="edge">
<title>fz&#45;&gt;fk</title>
<path fill="none" stroke="black" d="M1080.34,-583.62C1054.76,-573.03 1011.89,-555.28 975,-540 972.1,-538.8 969.09,-537.55 966.08,-536.3"/>
<polygon fill="black" stroke="black" points="967.13,-532.95 956.56,-532.35 964.45,-539.42 967.13,-532.95"/>
</g>
<!-- kb&#45;&gt;fz -->
<g id="edge37" class="edge">
<title>kb&#45;&gt;fz</title>
<path fill="none" stroke="black" d="M1118.97,-324.31C1116.12,-372.31 1108.09,-507.44 1104.62,-565.7"/>
<polygon fill="black" stroke="black" points="1101.11,-565.78 1104.01,-575.97 1108.1,-566.19 1101.11,-565.78"/>
</g>
<!-- cr -->
<g id="node59" class="node">
<title>cr</title>
<ellipse fill="none" stroke="black" cx="1082" cy="-234" rx="27" ry="18"/>
<text text-anchor="middle" x="1082" y="-230.3" font-family="Times,serif" font-size="14.00">cr</text>
</g>
<!-- kb&#45;&gt;cr -->
<g id="edge36" class="edge">
<title>kb&#45;&gt;cr</title>
<path fill="none" stroke="black" d="M1111.19,-288.76C1106.58,-280.28 1100.84,-269.71 1095.68,-260.2"/>
<polygon fill="black" stroke="black" points="1098.61,-258.27 1090.77,-251.15 1092.46,-261.61 1098.61,-258.27"/>
</g>
<!-- vf&#45;&gt;vd -->
<g id="edge39" class="edge">
<title>vf&#45;&gt;vd</title>
<path fill="none" stroke="black" d="M98.25,-866.07C90.04,-856.1 80.38,-842.25 76,-828 62.79,-785.06 30.5,-716.34 79,-648 102.77,-614.5 150.35,-602.15 183.87,-597.61"/>
<polygon fill="black" stroke="black" points="184.68,-601.04 194.21,-596.39 183.87,-594.09 184.68,-601.04"/>
</g>
<!-- nc -->
<g id="node26" class="node">
<title>nc</title>
<ellipse fill="none" stroke="black" cx="112" cy="-810" rx="27" ry="18"/>
<text text-anchor="middle" x="112" y="-806.3" font-family="Times,serif" font-size="14.00">nc</text>
</g>
<!-- vf&#45;&gt;nc -->
<g id="edge38" class="edge">
<title>vf&#45;&gt;nc</title>
<path fill="none" stroke="black" d="M112,-863.7C112,-855.98 112,-846.71 112,-838.11"/>
<polygon fill="black" stroke="black" points="115.5,-838.1 112,-828.1 108.5,-838.1 115.5,-838.1"/>
</g>
<!-- lz&#45;&gt;pn -->
<g id="edge41" class="edge">
<title>lz&#45;&gt;pn</title>
<path fill="none" stroke="black" d="M658.96,-864.21C650.56,-827.34 638.73,-739.04 635.88,-694.17"/>
<polygon fill="black" stroke="black" points="639.36,-693.82 635.36,-684.01 632.37,-694.17 639.36,-693.82"/>
</g>
<!-- vq -->
<g id="node40" class="node">
<title>vq</title>
<ellipse fill="none" stroke="black" cx="697" cy="-810" rx="27" ry="18"/>
<text text-anchor="middle" x="697" y="-806.3" font-family="Times,serif" font-size="14.00">vq</text>
</g>
<!-- lz&#45;&gt;vq -->
<g id="edge40" class="edge">
<title>lz&#45;&gt;vq</title>
<path fill="none" stroke="black" d="M672.58,-864.41C676.37,-856.13 681.03,-845.92 685.27,-836.66"/>
<polygon fill="black" stroke="black" points="688.5,-838.02 689.47,-827.47 682.13,-835.11 688.5,-838.02"/>
</g>
<!-- hq&#45;&gt;mh -->
<g id="edge42" class="edge">
<title>hq&#45;&gt;mh</title>
<path fill="none" stroke="black" d="M719.07,-505.81C711.79,-496.55 702.34,-484.52 694.15,-474.09"/>
<polygon fill="black" stroke="black" points="696.84,-471.86 687.91,-466.16 691.34,-476.18 696.84,-471.86"/>
</g>
<!-- mh&#45;&gt;xp -->
<g id="edge43" class="edge">
<title>mh&#45;&gt;xp</title>
<path fill="none" stroke="black" d="M665.56,-433.12C659.8,-424.34 652.52,-413.26 646.04,-403.42"/>
<polygon fill="black" stroke="black" points="648.81,-401.26 640.4,-394.82 642.96,-405.1 648.81,-401.26"/>
</g>
<!-- bh&#45;&gt;hq -->
<g id="edge44" class="edge">
<title>bh&#45;&gt;hq</title>
<path fill="none" stroke="black" d="M731,-575.7C731,-567.98 731,-558.71 731,-550.11"/>
<polygon fill="black" stroke="black" points="734.5,-550.1 731,-540.1 727.5,-550.1 734.5,-550.1"/>
</g>
<!-- xb -->
<g id="node24" class="node">
<title>xb</title>
<ellipse fill="none" stroke="black" cx="1444" cy="-18" rx="27" ry="18"/>
<text text-anchor="middle" x="1444" y="-14.3" font-family="Times,serif" font-size="14.00">xb</text>
</g>
<!-- th -->
<g id="node25" class="node">
<title>th</title>
<ellipse fill="none" stroke="black" cx="1498" cy="-810" rx="27" ry="18"/>
<text text-anchor="middle" x="1498" y="-806.3" font-family="Times,serif" font-size="14.00">th</text>
</g>
<!-- xb&#45;&gt;th -->
<g id="edge45" class="edge">
<title>xb&#45;&gt;th</title>
<path fill="none" stroke="black" d="M1424.42,-30.51C1391.11,-51.74 1327,-100.47 1327,-161 1327,-667 1327,-667 1327,-667 1327,-713.04 1345.63,-725.37 1380,-756 1403.98,-777.37 1437.99,-791.4 1463.35,-799.63"/>
<polygon fill="black" stroke="black" points="1462.35,-802.99 1472.94,-802.6 1464.42,-796.3 1462.35,-802.99"/>
</g>
<!-- th&#45;&gt;rz -->
<g id="edge47" class="edge">
<title>th&#45;&gt;rz</title>
<path fill="none" stroke="black" d="M1471.01,-807.82C1408.48,-804.53 1249.26,-792.9 1122,-756 1059.53,-737.89 991.35,-703.51 953.83,-683.19"/>
<polygon fill="black" stroke="black" points="955.42,-680.07 944.97,-678.34 952.06,-686.21 955.42,-680.07"/>
</g>
<!-- cm -->
<g id="node30" class="node">
<title>cm</title>
<ellipse fill="none" stroke="black" cx="1545" cy="-450" rx="27" ry="18"/>
<text text-anchor="middle" x="1545" y="-446.3" font-family="Times,serif" font-size="14.00">cm</text>
</g>
<!-- th&#45;&gt;cm -->
<g id="edge50" class="edge">
<title>th&#45;&gt;cm</title>
<path fill="none" stroke="black" d="M1510.57,-793.65C1528.03,-771.22 1558.76,-727.4 1570,-684 1588.99,-610.72 1567.16,-520.86 1553.83,-477.25"/>
<polygon fill="black" stroke="black" points="1557.15,-476.16 1550.81,-467.68 1550.48,-478.27 1557.15,-476.16"/>
</g>
<!-- fq -->
<g id="node36" class="node">
<title>fq</title>
<ellipse fill="none" stroke="black" cx="1534" cy="-666" rx="27" ry="18"/>
<text text-anchor="middle" x="1534" y="-662.3" font-family="Times,serif" font-size="14.00">fq</text>
</g>
<!-- th&#45;&gt;fq -->
<g id="edge49" class="edge">
<title>th&#45;&gt;fq</title>
<path fill="none" stroke="black" d="M1502.27,-792.15C1508.44,-767.81 1519.91,-722.57 1527.24,-693.67"/>
<polygon fill="black" stroke="black" points="1530.67,-694.38 1529.73,-683.82 1523.88,-692.66 1530.67,-694.38"/>
</g>
<!-- mj -->
<g id="node38" class="node">
<title>mj</title>
<ellipse fill="none" stroke="black" cx="1498" cy="-882" rx="27" ry="18"/>
<text text-anchor="middle" x="1498" y="-878.3" font-family="Times,serif" font-size="14.00">mj</text>
</g>
<!-- th&#45;&gt;mj -->
<g id="edge46" class="edge">
<title>th&#45;&gt;mj</title>
<path fill="none" stroke="black" d="M1503.88,-827.96C1504.71,-835.83 1504.95,-845.37 1504.58,-854.19"/>
<polygon fill="black" stroke="black" points="1501.07,-854.18 1503.84,-864.41 1508.06,-854.69 1501.07,-854.18"/>
</g>
<!-- np -->
<g id="node39" class="node">
<title>np</title>
<ellipse fill="none" stroke="black" cx="1648" cy="-738" rx="27" ry="18"/>
<text text-anchor="middle" x="1648" y="-734.3" font-family="Times,serif" font-size="14.00">np</text>
</g>
<!-- th&#45;&gt;np -->
<g id="edge48" class="edge">
<title>th&#45;&gt;np</title>
<path fill="none" stroke="black" d="M1519.49,-798.97C1545.11,-787.02 1588.11,-766.95 1617.24,-753.35"/>
<polygon fill="black" stroke="black" points="1618.97,-756.41 1626.55,-749.01 1616.01,-750.07 1618.97,-756.41"/>
</g>
<!-- nc&#45;&gt;vd -->
<g id="edge52" class="edge">
<title>nc&#45;&gt;vd</title>
<path fill="none" stroke="black" d="M103.96,-792.76C89.89,-761.75 64.99,-693.19 95,-648 114.73,-618.29 154.72,-605.2 184.38,-599.45"/>
<polygon fill="black" stroke="black" points="185.14,-602.87 194.39,-597.71 183.94,-595.98 185.14,-602.87"/>
</g>
<!-- sf -->
<g id="node49" class="node">
<title>sf</title>
<ellipse fill="none" stroke="black" cx="131" cy="-738" rx="27" ry="18"/>
<text text-anchor="middle" x="131" y="-734.3" font-family="Times,serif" font-size="14.00">sf</text>
</g>
<!-- nc&#45;&gt;sf -->
<g id="edge51" class="edge">
<title>nc&#45;&gt;sf</title>
<path fill="none" stroke="black" d="M116.6,-792.05C118.75,-784.14 121.35,-774.54 123.76,-765.69"/>
<polygon fill="black" stroke="black" points="127.2,-766.36 126.44,-755.79 120.45,-764.52 127.2,-766.36"/>
</g>
<!-- ds -->
<g id="node27" class="node">
<title>ds</title>
<ellipse fill="none" stroke="black" cx="469" cy="-90" rx="27" ry="18"/>
<text text-anchor="middle" x="469" y="-86.3" font-family="Times,serif" font-size="14.00">ds</text>
</g>
<!-- ds&#45;&gt;pn -->
<g id="edge54" class="edge">
<title>ds&#45;&gt;pn</title>
<path fill="none" stroke="black" d="M465.64,-107.97C460.69,-134.52 452,-187.56 452,-233 452,-523 452,-523 452,-523 452,-568.15 467.04,-582.24 501,-612 529.64,-637.1 571.52,-650.99 601.23,-658.19"/>
<polygon fill="black" stroke="black" points="600.66,-661.65 611.19,-660.46 602.22,-654.83 600.66,-661.65"/>
</g>
<!-- kz -->
<g id="node28" class="node">
<title>kz</title>
<ellipse fill="none" stroke="black" cx="442" cy="-18" rx="27" ry="18"/>
<text text-anchor="middle" x="442" y="-14.3" font-family="Times,serif" font-size="14.00">kz</text>
</g>
<!-- ds&#45;&gt;kz -->
<g id="edge53" class="edge">
<title>ds&#45;&gt;kz</title>
<path fill="none" stroke="black" d="M462.6,-72.41C459.49,-64.34 455.67,-54.43 452.17,-45.35"/>
<polygon fill="black" stroke="black" points="455.4,-44.03 448.54,-35.96 448.87,-46.55 455.4,-44.03"/>
</g>
<!-- kz&#45;&gt;pn -->
<g id="edge55" class="edge">
<title>kz&#45;&gt;pn</title>
<path fill="none" stroke="black" d="M436.47,-35.84C428.31,-62.21 414,-115.02 414,-161 414,-523 414,-523 414,-523 414,-567.73 426.46,-583.57 461,-612 501.09,-645 561.31,-657.46 599.88,-662.16"/>
<polygon fill="black" stroke="black" points="599.83,-665.68 610.15,-663.29 600.6,-658.72 599.83,-665.68"/>
</g>
<!-- br&#45;&gt;lb -->
<g id="edge56" class="edge">
<title>br&#45;&gt;lb</title>
<path fill="none" stroke="black" d="M645.23,-513.9C688,-501.38 776.96,-475.32 825.9,-460.99"/>
<polygon fill="black" stroke="black" points="827.09,-464.29 835.7,-458.12 825.12,-457.57 827.09,-464.29"/>
</g>
<!-- fm -->
<g id="node31" class="node">
<title>fm</title>
<ellipse fill="none" stroke="black" cx="1545" cy="-378" rx="27" ry="18"/>
<text text-anchor="middle" x="1545" y="-374.3" font-family="Times,serif" font-size="14.00">fm</text>
</g>
<!-- cm&#45;&gt;fm -->
<g id="edge57" class="edge">
<title>cm&#45;&gt;fm</title>
<path fill="none" stroke="black" d="M1545,-431.7C1545,-423.98 1545,-414.71 1545,-406.11"/>
<polygon fill="black" stroke="black" points="1548.5,-406.1 1545,-396.1 1541.5,-406.1 1548.5,-406.1"/>
</g>
<!-- fm&#45;&gt;th -->
<g id="edge59" class="edge">
<title>fm&#45;&gt;th</title>
<path fill="none" stroke="black" d="M1522.81,-388.64C1482.88,-407.66 1403,-454.06 1403,-521 1403,-667 1403,-667 1403,-667 1403,-717.48 1444.99,-763.61 1473.14,-788.85"/>
<polygon fill="black" stroke="black" points="1471.17,-791.78 1481.02,-795.7 1475.77,-786.5 1471.17,-791.78"/>
</g>
<!-- hh -->
<g id="node43" class="node">
<title>hh</title>
<ellipse fill="none" stroke="black" cx="1562" cy="-306" rx="27" ry="18"/>
<text text-anchor="middle" x="1562" y="-302.3" font-family="Times,serif" font-size="14.00">hh</text>
</g>
<!-- fm&#45;&gt;hh -->
<g id="edge58" class="edge">
<title>fm&#45;&gt;hh</title>
<path fill="none" stroke="black" d="M1549.12,-360.05C1551.01,-352.26 1553.3,-342.82 1555.42,-334.08"/>
<polygon fill="black" stroke="black" points="1558.85,-334.82 1557.8,-324.28 1552.04,-333.17 1558.85,-334.82"/>
</g>
<!-- qz -->
<g id="node32" class="node">
<title>qz</title>
<ellipse fill="none" stroke="black" cx="735" cy="-738" rx="27" ry="18"/>
<text text-anchor="middle" x="735" y="-734.3" font-family="Times,serif" font-size="14.00">qz</text>
</g>
<!-- qz&#45;&gt;pn -->
<g id="edge61" class="edge">
<title>qz&#45;&gt;pn</title>
<path fill="none" stroke="black" d="M717.03,-724.16C701.97,-713.41 680.27,-697.91 663.27,-685.76"/>
<polygon fill="black" stroke="black" points="665.03,-682.72 654.86,-679.76 660.96,-688.42 665.03,-682.72"/>
</g>
<!-- qz&#45;&gt;bh -->
<g id="edge60" class="edge">
<title>qz&#45;&gt;bh</title>
<path fill="none" stroke="black" d="M734.52,-719.87C733.84,-695.67 732.58,-651.21 731.77,-622.39"/>
<polygon fill="black" stroke="black" points="735.26,-622.09 731.48,-612.19 728.27,-622.28 735.26,-622.09"/>
</g>
<!-- vx -->
<g id="node34" class="node">
<title>vx</title>
<ellipse fill="none" stroke="black" cx="507" cy="-162" rx="27" ry="18"/>
<text text-anchor="middle" x="507" y="-158.3" font-family="Times,serif" font-size="14.00">vx</text>
</g>
<!-- vx&#45;&gt;pn -->
<g id="edge62" class="edge">
<title>vx&#45;&gt;pn</title>
<path fill="none" stroke="black" d="M503.64,-179.97C498.69,-206.52 490,-259.56 490,-305 490,-523 490,-523 490,-523 490,-568.15 506.95,-580.19 539,-612 557.49,-630.35 583.65,-644.06 604.29,-652.94"/>
<polygon fill="black" stroke="black" points="603.05,-656.21 613.63,-656.79 605.72,-649.74 603.05,-656.21"/>
</g>
<!-- vx&#45;&gt;ds -->
<g id="edge63" class="edge">
<title>vx&#45;&gt;ds</title>
<path fill="none" stroke="black" d="M498.19,-144.76C493.58,-136.28 487.84,-125.71 482.68,-116.2"/>
<polygon fill="black" stroke="black" points="485.61,-114.27 477.77,-107.15 479.46,-117.61 485.61,-114.27"/>
</g>
<!-- gp -->
<g id="node35" class="node">
<title>gp</title>
<ellipse fill="none" stroke="black" cx="1512" cy="-522" rx="27" ry="18"/>
<text text-anchor="middle" x="1512" y="-518.3" font-family="Times,serif" font-size="14.00">gp</text>
</g>
<!-- gp&#45;&gt;th -->
<g id="edge65" class="edge">
<title>gp&#45;&gt;th</title>
<path fill="none" stroke="black" d="M1498.25,-537.93C1490.04,-547.9 1480.38,-561.75 1476,-576 1453.78,-648.27 1475.48,-738.58 1489,-782.53"/>
<polygon fill="black" stroke="black" points="1485.7,-783.7 1492.07,-792.17 1492.37,-781.58 1485.7,-783.7"/>
</g>
<!-- gp&#45;&gt;cm -->
<g id="edge64" class="edge">
<title>gp&#45;&gt;cm</title>
<path fill="none" stroke="black" d="M1519.82,-504.41C1523.72,-496.13 1528.54,-485.92 1532.9,-476.66"/>
<polygon fill="black" stroke="black" points="1536.14,-478.01 1537.24,-467.47 1529.81,-475.02 1536.14,-478.01"/>
</g>
<!-- xd -->
<g id="node37" class="node">
<title>xd</title>
<ellipse fill="none" stroke="black" cx="1512" cy="-594" rx="27" ry="18"/>
<text text-anchor="middle" x="1512" y="-590.3" font-family="Times,serif" font-size="14.00">xd</text>
</g>
<!-- fq&#45;&gt;xd -->
<g id="edge66" class="edge">
<title>fq&#45;&gt;xd</title>
<path fill="none" stroke="black" d="M1528.67,-648.05C1526.16,-640.06 1523.1,-630.33 1520.3,-621.4"/>
<polygon fill="black" stroke="black" points="1523.61,-620.28 1517.28,-611.79 1516.94,-622.38 1523.61,-620.28"/>
</g>
<!-- xd&#45;&gt;th -->
<g id="edge67" class="edge">
<title>xd&#45;&gt;th</title>
<path fill="none" stroke="black" d="M1506.32,-611.96C1503.18,-622.26 1499.59,-635.73 1498,-648 1491.95,-694.62 1493.85,-749.46 1495.86,-781.61"/>
<polygon fill="black" stroke="black" points="1492.4,-782.25 1496.57,-791.99 1499.38,-781.77 1492.4,-782.25"/>
</g>
<!-- xd&#45;&gt;gp -->
<g id="edge68" class="edge">
<title>xd&#45;&gt;gp</title>
<path fill="none" stroke="black" d="M1512,-575.7C1512,-567.98 1512,-558.71 1512,-550.11"/>
<polygon fill="black" stroke="black" points="1515.5,-550.1 1512,-540.1 1508.5,-550.1 1515.5,-550.1"/>
</g>
<!-- mj&#45;&gt;th -->
<g id="edge69" class="edge">
<title>mj&#45;&gt;th</title>
<path fill="none" stroke="black" d="M1492.16,-864.41C1491.3,-856.51 1491.05,-846.85 1491.41,-837.94"/>
<polygon fill="black" stroke="black" points="1494.9,-838.18 1492.12,-827.96 1487.92,-837.68 1494.9,-838.18"/>
</g>
<!-- mj&#45;&gt;np -->
<g id="edge70" class="edge">
<title>mj&#45;&gt;np</title>
<path fill="none" stroke="black" d="M1512.93,-866.87C1539.44,-841.77 1594.83,-789.34 1625.81,-760.01"/>
<polygon fill="black" stroke="black" points="1628.27,-762.49 1633.13,-753.08 1623.46,-757.41 1628.27,-762.49"/>
</g>
<!-- np&#45;&gt;fq -->
<g id="edge71" class="edge">
<title>np&#45;&gt;fq</title>
<path fill="none" stroke="black" d="M1628.66,-725.13C1610.4,-713.91 1582.81,-696.97 1562.11,-684.26"/>
<polygon fill="black" stroke="black" points="1563.79,-681.18 1553.43,-678.93 1560.12,-687.15 1563.79,-681.18"/>
</g>
<!-- vq&#45;&gt;pn -->
<g id="edge73" class="edge">
<title>vq&#45;&gt;pn</title>
<path fill="none" stroke="black" d="M690,-792.43C679.66,-767.96 660.2,-721.91 647.96,-692.94"/>
<polygon fill="black" stroke="black" points="651.07,-691.31 643.96,-683.46 644.62,-694.04 651.07,-691.31"/>
</g>
<!-- vq&#45;&gt;qz -->
<g id="edge72" class="edge">
<title>vq&#45;&gt;qz</title>
<path fill="none" stroke="black" d="M705.81,-792.76C710.42,-784.28 716.16,-773.71 721.32,-764.2"/>
<polygon fill="black" stroke="black" points="724.54,-765.61 726.23,-755.15 718.39,-762.27 724.54,-765.61"/>
</g>
<!-- fl -->
<g id="node41" class="node">
<title>fl</title>
<ellipse fill="none" stroke="black" cx="1063" cy="-162" rx="27" ry="18"/>
<text text-anchor="middle" x="1063" y="-158.3" font-family="Times,serif" font-size="14.00">fl</text>
</g>
<!-- fl&#45;&gt;fz -->
<g id="edge74" class="edge">
<title>fl&#45;&gt;fz</title>
<path fill="none" stroke="black" d="M1055.89,-179.7C1045.4,-205.89 1027,-258.46 1027,-305 1027,-451 1027,-451 1027,-451 1027,-497.88 1059.6,-544.26 1082.09,-570.69"/>
<polygon fill="black" stroke="black" points="1079.48,-573.02 1088.7,-578.23 1084.74,-568.4 1079.48,-573.02"/>
</g>
<!-- rq -->
<g id="node42" class="node">
<title>rq</title>
<ellipse fill="none" stroke="black" cx="1063" cy="-90" rx="27" ry="18"/>
<text text-anchor="middle" x="1063" y="-86.3" font-family="Times,serif" font-size="14.00">rq</text>
</g>
<!-- fl&#45;&gt;rq -->
<g id="edge75" class="edge">
<title>fl&#45;&gt;rq</title>
<path fill="none" stroke="black" d="M1063,-143.7C1063,-135.98 1063,-126.71 1063,-118.11"/>
<polygon fill="black" stroke="black" points="1066.5,-118.1 1063,-108.1 1059.5,-118.1 1066.5,-118.1"/>
</g>
<!-- rq&#45;&gt;fz -->
<g id="edge77" class="edge">
<title>rq&#45;&gt;fz</title>
<path fill="none" stroke="black" d="M1049.08,-105.84C1027.65,-130.32 989,-181.57 989,-233 989,-451 989,-451 989,-451 989,-505.85 1041.36,-551.58 1075.11,-575.35"/>
<polygon fill="black" stroke="black" points="1073.43,-578.44 1083.66,-581.19 1077.38,-572.66 1073.43,-578.44"/>
</g>
<!-- fn -->
<g id="node50" class="node">
<title>fn</title>
<ellipse fill="none" stroke="black" cx="1148" cy="-18" rx="27" ry="18"/>
<text text-anchor="middle" x="1148" y="-14.3" font-family="Times,serif" font-size="14.00">fn</text>
</g>
<!-- rq&#45;&gt;fn -->
<g id="edge76" class="edge">
<title>rq&#45;&gt;fn</title>
<path fill="none" stroke="black" d="M1079.39,-75.5C1091.97,-65.14 1109.54,-50.67 1123.75,-38.97"/>
<polygon fill="black" stroke="black" points="1126.17,-41.51 1131.66,-32.46 1121.72,-36.11 1126.17,-41.51"/>
</g>
<!-- hh&#45;&gt;th -->
<g id="edge78" class="edge">
<title>hh&#45;&gt;th</title>
<path fill="none" stroke="black" d="M1574.23,-322.13C1593.05,-347.02 1627,-398.84 1627,-449 1627,-595 1627,-595 1627,-595 1627,-672.33 1606.57,-693.52 1561,-756 1551.21,-769.42 1537.33,-781.57 1525.09,-790.85"/>
<polygon fill="black" stroke="black" points="1522.96,-788.07 1516.95,-796.79 1527.09,-793.72 1522.96,-788.07"/>
</g>
<!-- dq -->
<g id="node54" class="node">
<title>dq</title>
<ellipse fill="none" stroke="black" cx="1562" cy="-234" rx="27" ry="18"/>
<text text-anchor="middle" x="1562" y="-230.3" font-family="Times,serif" font-size="14.00">dq</text>
</g>
<!-- hh&#45;&gt;dq -->
<g id="edge79" class="edge">
<title>hh&#45;&gt;dq</title>
<path fill="none" stroke="black" d="M1562,-287.7C1562,-279.98 1562,-270.71 1562,-262.11"/>
<polygon fill="black" stroke="black" points="1565.5,-262.1 1562,-252.1 1558.5,-262.1 1565.5,-262.1"/>
</g>
<!-- tx&#45;&gt;fz -->
<g id="edge80" class="edge">
<title>tx&#45;&gt;fz</title>
<path fill="none" stroke="black" d="M1019.65,-863.97C1029.76,-815.75 1070.45,-678.12 1091.3,-620.68"/>
<polygon fill="black" stroke="black" points="1094.61,-621.82 1094.83,-611.23 1088.05,-619.37 1094.61,-621.82"/>
</g>
<!-- qn -->
<g id="node45" class="node">
<title>qn</title>
<ellipse fill="none" stroke="black" cx="1103" cy="-810" rx="27" ry="18"/>
<text text-anchor="middle" x="1103" y="-806.3" font-family="Times,serif" font-size="14.00">qn</text>
</g>
<!-- tx&#45;&gt;qn -->
<g id="edge81" class="edge">
<title>tx&#45;&gt;qn</title>
<path fill="none" stroke="black" d="M1034.39,-867.5C1046.97,-857.14 1064.54,-842.67 1078.75,-830.97"/>
<polygon fill="black" stroke="black" points="1081.17,-833.51 1086.66,-824.46 1076.72,-828.11 1081.17,-833.51"/>
</g>
<!-- qn&#45;&gt;fz -->
<g id="edge82" class="edge">
<title>qn&#45;&gt;fz</title>
<path fill="none" stroke="black" d="M1103,-791.85C1103,-754.83 1103,-667.18 1103,-622.39"/>
<polygon fill="black" stroke="black" points="1106.5,-622.23 1103,-612.23 1099.5,-622.23 1106.5,-622.23"/>
</g>
<!-- bt -->
<g id="node53" class="node">
<title>bt</title>
<ellipse fill="none" stroke="black" cx="1158" cy="-738" rx="27" ry="18"/>
<text text-anchor="middle" x="1158" y="-734.3" font-family="Times,serif" font-size="14.00">bt</text>
</g>
<!-- qn&#45;&gt;bt -->
<g id="edge83" class="edge">
<title>qn&#45;&gt;bt</title>
<path fill="none" stroke="black" d="M1114.93,-793.81C1122.21,-784.55 1131.66,-772.52 1139.85,-762.09"/>
<polygon fill="black" stroke="black" points="1142.66,-764.18 1146.09,-754.16 1137.16,-759.86 1142.66,-764.18"/>
</g>
<!-- dn -->
<g id="node46" class="node">
<title>dn</title>
<ellipse fill="none" stroke="black" cx="1196" cy="-666" rx="27" ry="18"/>
<text text-anchor="middle" x="1196" y="-662.3" font-family="Times,serif" font-size="14.00">dn</text>
</g>
<!-- dn&#45;&gt;nm -->
<g id="edge84" class="edge">
<title>dn&#45;&gt;nm</title>
<path fill="none" stroke="black" d="M1204.72,-648.71C1217.89,-624.1 1242.97,-577.24 1258.51,-548.21"/>
<polygon fill="black" stroke="black" points="1261.75,-549.57 1263.38,-539.1 1255.58,-546.26 1261.75,-549.57"/>
</g>
<!-- dn&#45;&gt;fz -->
<g id="edge85" class="edge">
<title>dn&#45;&gt;fz</title>
<path fill="none" stroke="black" d="M1178.51,-651.83C1164.48,-641.27 1144.58,-626.3 1128.74,-614.37"/>
<polygon fill="black" stroke="black" points="1130.51,-611.32 1120.41,-608.11 1126.3,-616.92 1130.51,-611.32"/>
</g>
<!-- xv -->
<g id="node47" class="node">
<title>xv</title>
<ellipse fill="none" stroke="black" cx="131" cy="-666" rx="27" ry="18"/>
<text text-anchor="middle" x="131" y="-662.3" font-family="Times,serif" font-size="14.00">xv</text>
</g>
<!-- xv&#45;&gt;vd -->
<g id="edge86" class="edge">
<title>xv&#45;&gt;vd</title>
<path fill="none" stroke="black" d="M147.93,-651.83C161.5,-641.27 180.76,-626.3 196.09,-614.37"/>
<polygon fill="black" stroke="black" points="198.4,-617.01 204.15,-608.11 194.11,-611.48 198.4,-617.01"/>
</g>
<!-- tp&#45;&gt;hf -->
<g id="edge87" class="edge">
<title>tp&#45;&gt;hf</title>
<path fill="none" stroke="black" d="M286.81,-319.41C317.75,-341.48 376,-390.77 376,-449 376,-595 376,-595 376,-595 376,-690.49 357,-713.51 357,-809 357,-1027 357,-1027 357,-1027 357,-1070.91 333.23,-1117.33 316.39,-1144.7"/>
<polygon fill="black" stroke="black" points="313.39,-1142.9 310.99,-1153.22 319.3,-1146.65 313.39,-1142.9"/>
</g>
<!-- sf&#45;&gt;vd -->
<g id="edge88" class="edge">
<title>sf&#45;&gt;vd</title>
<path fill="none" stroke="black" d="M141.93,-721.37C149.17,-710.89 158.82,-696.73 167,-684 180.81,-662.51 195.83,-637.61 206.52,-619.63"/>
<polygon fill="black" stroke="black" points="209.6,-621.29 211.68,-610.91 203.58,-617.73 209.6,-621.29"/>
</g>
<!-- sf&#45;&gt;xv -->
<g id="edge89" class="edge">
<title>sf&#45;&gt;xv</title>
<path fill="none" stroke="black" d="M131,-719.7C131,-711.98 131,-702.71 131,-694.11"/>
<polygon fill="black" stroke="black" points="134.5,-694.1 131,-684.1 127.5,-694.1 134.5,-694.1"/>
</g>
<!-- fn&#45;&gt;fz -->
<g id="edge90" class="edge">
<title>fn&#45;&gt;fz</title>
<path fill="none" stroke="black" d="M1165.94,-31.62C1195.45,-54 1251,-103.74 1251,-161 1251,-379 1251,-379 1251,-379 1251,-457.57 1234.34,-485.24 1178,-540 1163.99,-553.62 1146.2,-566.35 1131.47,-575.91"/>
<polygon fill="black" stroke="black" points="1129.32,-573.13 1122.75,-581.44 1133.07,-579.04 1129.32,-573.13"/>
</g>
<!-- ms&#45;&gt;vd -->
<g id="edge92" class="edge">
<title>ms&#45;&gt;vd</title>
<path fill="none" stroke="black" d="M199.25,-393.93C191.04,-403.9 181.38,-417.75 177,-432 162.27,-479.9 187.52,-536.55 205.46,-568.27"/>
<polygon fill="black" stroke="black" points="202.44,-570.04 210.51,-576.91 208.48,-566.51 202.44,-570.04"/>
</g>
<!-- ms&#45;&gt;tp -->
<g id="edge91" class="edge">
<title>ms&#45;&gt;tp</title>
<path fill="none" stroke="black" d="M224.93,-361.81C232.21,-352.55 241.66,-340.52 249.85,-330.09"/>
<polygon fill="black" stroke="black" points="252.66,-332.18 256.09,-322.16 247.16,-327.86 252.66,-332.18"/>
</g>
<!-- fk&#45;&gt;lb -->
<g id="edge93" class="edge">
<title>fk&#45;&gt;lb</title>
<path fill="none" stroke="black" d="M919.02,-506.83C908.49,-496.87 894.22,-483.37 882.34,-472.14"/>
<polygon fill="black" stroke="black" points="884.62,-469.47 874.95,-465.14 879.81,-474.56 884.62,-469.47"/>
</g>
<!-- bt&#45;&gt;fz -->
<g id="edge94" class="edge">
<title>bt&#45;&gt;fz</title>
<path fill="none" stroke="black" d="M1151.58,-720.43C1142.15,-696.09 1124.46,-650.4 1113.23,-621.4"/>
<polygon fill="black" stroke="black" points="1116.42,-619.96 1109.55,-611.9 1109.89,-622.49 1116.42,-619.96"/>
</g>
<!-- bt&#45;&gt;dn -->
<g id="edge95" class="edge">
<title>bt&#45;&gt;dn</title>
<path fill="none" stroke="black" d="M1166.81,-720.76C1171.42,-712.28 1177.16,-701.71 1182.32,-692.2"/>
<polygon fill="black" stroke="black" points="1185.54,-693.61 1187.23,-683.15 1179.39,-690.27 1185.54,-693.61"/>
</g>
<!-- dq&#45;&gt;th -->
<g id="edge97" class="edge">
<title>dq&#45;&gt;th</title>
<path fill="none" stroke="black" d="M1536.65,-240.61C1483.44,-254.03 1365,-293.31 1365,-377 1365,-667 1365,-667 1365,-667 1365,-726.73 1428.45,-771.69 1467.7,-793.79"/>
<polygon fill="black" stroke="black" points="1466.18,-796.95 1476.63,-798.66 1469.53,-790.8 1466.18,-796.95"/>
</g>
<!-- dj -->
<g id="node57" class="node">
<title>dj</title>
<ellipse fill="none" stroke="black" cx="1624" cy="-162" rx="27" ry="18"/>
<text text-anchor="middle" x="1624" y="-158.3" font-family="Times,serif" font-size="14.00">dj</text>
</g>
<!-- dq&#45;&gt;dj -->
<g id="edge96" class="edge">
<title>dq&#45;&gt;dj</title>
<path fill="none" stroke="black" d="M1575.15,-218.15C1583.53,-208.69 1594.56,-196.24 1604.02,-185.56"/>
<polygon fill="black" stroke="black" points="1606.86,-187.63 1610.87,-177.82 1601.62,-182.99 1606.86,-187.63"/>
</g>
<!-- sx -->
<g id="node55" class="node">
<title>sx</title>
<ellipse fill="none" stroke="black" cx="1624" cy="-90" rx="27" ry="18"/>
<text text-anchor="middle" x="1624" y="-86.3" font-family="Times,serif" font-size="14.00">sx</text>
</g>
<!-- sx&#45;&gt;xb -->
<g id="edge99" class="edge">
<title>sx&#45;&gt;xb</title>
<path fill="none" stroke="black" d="M1601.2,-80.13C1569.64,-67.86 1512.46,-45.62 1476.45,-31.62"/>
<polygon fill="black" stroke="black" points="1477.48,-28.27 1466.9,-27.9 1474.95,-34.79 1477.48,-28.27"/>
</g>
<!-- sx&#45;&gt;th -->
<g id="edge98" class="edge">
<title>sx&#45;&gt;th</title>
<path fill="none" stroke="black" d="M1643.58,-102.51C1676.89,-123.74 1741,-172.47 1741,-233 1741,-667 1741,-667 1741,-667 1741,-709.34 1738.63,-727.85 1707,-756 1658.87,-798.82 1581,-808.02 1535.13,-809.45"/>
<polygon fill="black" stroke="black" points="1534.95,-805.95 1525.02,-809.66 1535.09,-812.95 1534.95,-805.95"/>
</g>
<!-- jd&#45;&gt;pn -->
<g id="edge100" class="edge">
<title>jd&#45;&gt;pn</title>
<path fill="none" stroke="black" d="M541.64,-251.97C536.69,-278.52 528,-331.56 528,-377 528,-523 528,-523 528,-523 528,-576.63 577.54,-622.49 609.82,-646.68"/>
<polygon fill="black" stroke="black" points="607.87,-649.58 618.01,-652.63 611.98,-643.92 607.87,-649.58"/>
</g>
<!-- jd&#45;&gt;vx -->
<g id="edge101" class="edge">
<title>jd&#45;&gt;vx</title>
<path fill="none" stroke="black" d="M536.19,-216.76C531.58,-208.28 525.84,-197.71 520.68,-188.2"/>
<polygon fill="black" stroke="black" points="523.61,-186.27 515.77,-179.15 517.46,-189.61 523.61,-186.27"/>
</g>
<!-- dj&#45;&gt;th -->
<g id="edge102" class="edge">
<title>dj&#45;&gt;th</title>
<path fill="none" stroke="black" d="M1638.49,-177.28C1661.3,-201.34 1703,-252.53 1703,-305 1703,-667 1703,-667 1703,-667 1703,-707.45 1711.62,-726.45 1684,-756 1645.53,-797.15 1577.59,-807.13 1535.33,-809.12"/>
<polygon fill="black" stroke="black" points="1535.05,-805.62 1525.18,-809.46 1535.29,-812.62 1535.05,-805.62"/>
</g>
<!-- dj&#45;&gt;sx -->
<g id="edge103" class="edge">
<title>dj&#45;&gt;sx</title>
<path fill="none" stroke="black" d="M1624,-143.7C1624,-135.98 1624,-126.71 1624,-118.11"/>
<polygon fill="black" stroke="black" points="1627.5,-118.1 1624,-108.1 1620.5,-118.1 1627.5,-118.1"/>
</g>
<!-- broadcaster -->
<g id="node58" class="node">
<title>broadcaster</title>
<ellipse fill="none" stroke="black" cx="855" cy="-954" rx="66.09" ry="18"/>
<text text-anchor="middle" x="855" y="-950.3" font-family="Times,serif" font-size="14.00">broadcaster</text>
</g>
<!-- broadcaster&#45;&gt;nn -->
<g id="edge104" class="edge">
<title>broadcaster&#45;&gt;nn</title>
<path fill="none" stroke="black" d="M790.85,-949.03C743.13,-943.57 678.06,-930.62 629,-900 480.37,-807.22 370.49,-617.49 334.06,-548.66"/>
<polygon fill="black" stroke="black" points="336.96,-546.65 329.22,-539.41 330.75,-549.89 336.96,-546.65"/>
</g>
<!-- broadcaster&#45;&gt;lz -->
<g id="edge105" class="edge">
<title>broadcaster&#45;&gt;lz</title>
<path fill="none" stroke="black" d="M817.01,-939C782.07,-926.13 730.81,-907.24 697.66,-895.03"/>
<polygon fill="black" stroke="black" points="698.59,-891.65 688,-891.47 696.17,-898.21 698.59,-891.65"/>
</g>
<!-- broadcaster&#45;&gt;mj -->
<g id="edge106" class="edge">
<title>broadcaster&#45;&gt;mj</title>
<path fill="none" stroke="black" d="M915.2,-946.45C1046.35,-932.17 1354.6,-898.61 1461.07,-887.02"/>
<polygon fill="black" stroke="black" points="1461.74,-890.47 1471.31,-885.91 1460.99,-883.51 1461.74,-890.47"/>
</g>
<!-- broadcaster&#45;&gt;tx -->
<g id="edge107" class="edge">
<title>broadcaster&#45;&gt;tx</title>
<path fill="none" stroke="black" d="M888.77,-938.5C917.47,-926.17 958.35,-908.62 986.4,-896.57"/>
<polygon fill="black" stroke="black" points="987.94,-899.72 995.75,-892.55 985.18,-893.28 987.94,-899.72"/>
</g>
<!-- cr&#45;&gt;fz -->
<g id="edge109" class="edge">
<title>cr&#45;&gt;fz</title>
<path fill="none" stroke="black" d="M1078.64,-251.97C1073.69,-278.52 1065,-331.56 1065,-377 1065,-451 1065,-451 1065,-451 1065,-492.59 1080.4,-538.78 1091.6,-566.86"/>
<polygon fill="black" stroke="black" points="1088.45,-568.42 1095.49,-576.34 1094.93,-565.76 1088.45,-568.42"/>
</g>
<!-- cr&#45;&gt;fl -->
<g id="edge108" class="edge">
<title>cr&#45;&gt;fl</title>
<path fill="none" stroke="black" d="M1077.4,-216.05C1075.25,-208.14 1072.65,-198.54 1070.24,-189.69"/>
<polygon fill="black" stroke="black" points="1073.55,-188.52 1067.56,-179.79 1066.8,-190.36 1073.55,-188.52"/>
</g>
</g>
</svg>
